<svg xmlns="http://www.w3.org/2000/svg" xmlns:xlink="http://www.w3.org/1999/xlink" width="48" zoomAndPan="magnify" viewBox="0 0 36 36.000001" height="48" preserveAspectRatio="xMidYMid meet" version="1.0"><defs><g/><clipPath id="e5f58f97bd"><path d="M 0.488281 0 L 35.511719 0 L 35.511719 35.027344 L 0.488281 35.027344 Z M 0.488281 0 " clip-rule="nonzero"/></clipPath><clipPath id="2ed9909d98"><path d="M 8.039062 6 L 24 6 L 24 22 L 8.039062 22 Z M 8.039062 6 " clip-rule="nonzero"/></clipPath><clipPath id="42c8112cc3"><path d="M 19.328125 8.019531 L 27.738281 8.019531 L 27.738281 22.496094 L 19.328125 22.496094 Z M 19.328125 8.019531 " clip-rule="nonzero"/></clipPath></defs><g clip-path="url(#e5f58f97bd)"><path fill="#ffffff" d="M 0.488281 0 L 35.511719 0 L 35.511719 35.027344 L 0.488281 35.027344 Z M 0.488281 0 " fill-opacity="1" fill-rule="nonzero"/><path fill="#ffffff" d="M 0.488281 0 L 35.511719 0 L 35.511719 35.027344 L 0.488281 35.027344 Z M 0.488281 0 " fill-opacity="1" fill-rule="nonzero"/></g><g clip-path="url(#2ed9909d98)"><path fill="#09708a" d="M 22.140625 8.953125 C 20.570312 6.863281 17.84375 5.714844 15.285156 6.179688 C 13.195312 6.539062 11.351562 7.902344 10.585938 9.949219 C 10.003906 11.503906 10.085938 13.257812 10.976562 14.679688 C 11.917969 16.167969 13.5625 17.203125 15.335938 16.734375 C 14.953125 16.835938 14.207031 15.992188 13.957031 15.757812 C 13.503906 15.328125 13.152344 14.769531 12.941406 14.179688 C 12.765625 13.691406 12.695312 13.164062 12.75 12.648438 C 12.855469 11.585938 13.488281 10.675781 14.359375 10.109375 C 16.472656 8.753906 18.949219 9.621094 20.222656 11.707031 C 21.363281 13.582031 21.0625 16.101562 19.839844 17.863281 C 18.914062 19.234375 17.433594 20.128906 15.855469 20.511719 C 14.976562 20.738281 14.054688 20.796875 13.15625 20.660156 C 11.351562 20.394531 9.65625 19.378906 8.445312 17.996094 C 8.824219 18.472656 9.261719 18.894531 9.734375 19.273438 C 11.011719 20.296875 12.605469 20.933594 14.242188 20.945312 C 14.898438 20.957031 15.550781 20.855469 16.1875 20.695312 C 17.78125 20.292969 19.273438 19.351562 20.214844 17.957031 C 21.273438 16.402344 21.671875 14.351562 21.09375 12.535156 C 20.273438 9.964844 17.589844 8.238281 14.992188 9.1875 C 13.527344 9.710938 12.359375 10.976562 12.183594 12.582031 C 12.03125 13.941406 12.617188 15.277344 13.570312 16.210938 C 13.519531 16.195312 13.472656 16.175781 13.421875 16.148438 C 13.085938 15.964844 12.789062 15.710938 12.492188 15.464844 C 10.890625 14.199219 10.40625 12.070312 11.148438 10.171875 C 11.828125 8.332031 13.511719 7.089844 15.386719 6.765625 C 17.742188 6.324219 20.257812 7.375 21.726562 9.285156 C 24.367188 12.828125 23.175781 17.484375 19.59375 19.804688 C 17.6875 21.042969 15.289062 21.449219 13.085938 20.957031 C 12.984375 20.933594 12.824219 20.898438 12.726562 20.867188 C 12.601562 20.835938 12.414062 20.773438 12.285156 20.734375 C 12.125 20.679688 11.925781 20.605469 11.765625 20.542969 C 11.710938 20.519531 11.570312 20.457031 11.511719 20.433594 C 10.15625 19.820312 8.957031 18.863281 8.042969 17.667969 C 8.769531 18.699219 9.714844 19.566406 10.789062 20.210938 C 11.433594 20.597656 12.136719 20.902344 12.859375 21.101562 C 14.191406 21.480469 15.613281 21.5 16.96875 21.226562 C 17.894531 21.039062 18.796875 20.691406 19.613281 20.207031 C 23.589844 17.859375 24.960938 12.804688 22.140625 8.953125 " fill-opacity="1" fill-rule="nonzero"/></g><path fill="#09708a" d="M 24.386719 10.042969 C 25.816406 12.929688 24.933594 16.589844 22.601562 18.734375 C 23.1875 18.375 23.703125 17.890625 24.132812 17.347656 C 25.734375 15.328125 26.15625 12.363281 25.027344 10.007812 C 24.019531 7.859375 21.882812 6.214844 19.527344 6.050781 C 21.640625 6.613281 23.414062 8.078125 24.386719 10.042969 " fill-opacity="1" fill-rule="nonzero"/><g clip-path="url(#42c8112cc3)"><path fill="#09708a" d="M 25.808594 8.027344 C 27.160156 10.300781 27.578125 13.128906 26.898438 15.691406 C 26.433594 17.476562 25.386719 19.074219 24.007812 20.261719 C 22.761719 21.347656 21.234375 22.105469 19.625 22.441406 C 19.550781 22.453125 19.40625 22.484375 19.332031 22.496094 L 19.628906 22.488281 C 21.128906 22.410156 22.585938 21.875 23.835938 21.027344 C 25.703125 19.761719 27.078125 17.789062 27.542969 15.542969 C 28.089844 12.949219 27.503906 10.070312 25.808594 8.027344 " fill-opacity="1" fill-rule="nonzero"/></g><g fill="#000000" fill-opacity="1"><g transform="translate(11.326005, 27.648357)"><g><path d="M 2.234375 0.078125 C 2.003906 0.078125 1.785156 0.046875 1.578125 -0.015625 C 1.378906 -0.0859375 1.191406 -0.179688 1.015625 -0.296875 C 0.847656 -0.421875 0.703125 -0.566406 0.578125 -0.734375 C 0.453125 -0.910156 0.351562 -1.097656 0.28125 -1.296875 C 0.21875 -1.503906 0.1875 -1.722656 0.1875 -1.953125 C 0.1875 -2.171875 0.21875 -2.378906 0.28125 -2.578125 C 0.351562 -2.785156 0.453125 -2.972656 0.578125 -3.140625 C 0.703125 -3.304688 0.847656 -3.453125 1.015625 -3.578125 C 1.191406 -3.703125 1.378906 -3.796875 1.578125 -3.859375 C 1.785156 -3.929688 2.003906 -3.96875 2.234375 -3.96875 C 2.441406 -3.96875 2.644531 -3.9375 2.84375 -3.875 C 3.050781 -3.820312 3.238281 -3.734375 3.40625 -3.609375 C 3.582031 -3.484375 3.734375 -3.320312 3.859375 -3.125 C 3.984375 -2.9375 4.066406 -2.710938 4.109375 -2.453125 L 3.390625 -2.453125 C 3.335938 -2.648438 3.253906 -2.8125 3.140625 -2.9375 C 3.023438 -3.070312 2.890625 -3.171875 2.734375 -3.234375 C 2.578125 -3.296875 2.40625 -3.328125 2.21875 -3.328125 C 2.03125 -3.328125 1.859375 -3.289062 1.703125 -3.21875 C 1.546875 -3.15625 1.40625 -3.0625 1.28125 -2.9375 C 1.15625 -2.820312 1.0625 -2.675781 1 -2.5 C 0.9375 -2.332031 0.90625 -2.144531 0.90625 -1.9375 C 0.90625 -1.726562 0.9375 -1.539062 1 -1.375 C 1.0625 -1.207031 1.15625 -1.0625 1.28125 -0.9375 C 1.40625 -0.820312 1.546875 -0.734375 1.703125 -0.671875 C 1.859375 -0.609375 2.03125 -0.578125 2.21875 -0.578125 C 2.40625 -0.578125 2.578125 -0.601562 2.734375 -0.65625 C 2.890625 -0.71875 3.023438 -0.8125 3.140625 -0.9375 C 3.253906 -1.070312 3.332031 -1.238281 3.375 -1.4375 L 4.109375 -1.4375 C 4.066406 -1.175781 3.984375 -0.945312 3.859375 -0.75 C 3.734375 -0.5625 3.582031 -0.40625 3.40625 -0.28125 C 3.238281 -0.15625 3.050781 -0.0625 2.84375 0 C 2.644531 0.0507812 2.441406 0.078125 2.234375 0.078125 Z M 2.234375 0.078125 "/></g></g><g transform="translate(15.621724, 27.648357)"><g><path d="M 1.96875 0 L 0.46875 0 L 0.46875 -3.875 L 1.953125 -3.875 C 2.265625 -3.875 2.546875 -3.828125 2.796875 -3.734375 C 3.054688 -3.648438 3.273438 -3.519531 3.453125 -3.34375 C 3.628906 -3.175781 3.765625 -2.972656 3.859375 -2.734375 C 3.960938 -2.492188 4.015625 -2.226562 4.015625 -1.9375 C 4.015625 -1.644531 3.960938 -1.378906 3.859375 -1.140625 C 3.765625 -0.910156 3.628906 -0.707031 3.453125 -0.53125 C 3.273438 -0.363281 3.054688 -0.234375 2.796875 -0.140625 C 2.546875 -0.046875 2.269531 0 1.96875 0 Z M 1.15625 -3.25 L 1.15625 -0.640625 L 1.9375 -0.640625 C 2.226562 -0.640625 2.472656 -0.691406 2.671875 -0.796875 C 2.878906 -0.898438 3.035156 -1.046875 3.140625 -1.234375 C 3.242188 -1.429688 3.296875 -1.664062 3.296875 -1.9375 C 3.296875 -2.195312 3.242188 -2.425781 3.140625 -2.625 C 3.035156 -2.820312 2.878906 -2.972656 2.671875 -3.078125 C 2.472656 -3.191406 2.226562 -3.25 1.9375 -3.25 Z M 1.15625 -3.25 "/></g></g><g transform="translate(19.829077, 27.648357)"><g><path d="M 1.171875 0 L 0.46875 0 L 0.46875 -3.875 L 1.078125 -3.875 L 2.421875 -2.078125 L 3.765625 -3.875 L 4.390625 -3.875 L 4.390625 0 L 3.671875 0 L 3.671875 -2.734375 L 2.515625 -1.15625 L 2.328125 -1.15625 L 1.171875 -2.75 Z M 1.171875 0 "/></g></g></g></svg>